#!OML:ASF F:\VICON\USERDATA\INSTALL\rory3\rory3.ASF
:FULLY-SPECIFIED
:DEGREES
256
root -0.781221 15.9675 -1.77452 -3.04816 -5.01199 5.96309
lowerback 21.0542 0.52272 -2.85682
upperback 6.08489 -0.0088789 -1.21217
thorax -5.14319 0.000525651 0.330198
lowerneck -9.16091 -0.499095 -6.36273
upperneck -2.12126 -0.0934494 6.12997
head 0.936444 0.0905263 3.10709
rclavicle -2.88238e-015 9.14409e-015
rhumerus -25.3714 -3.0224 -81.39
rradius 28.9523
rwrist 14.2588
rhand -25.9913 -1.85732
rfingers 7.12502
rthumb 0.554152 -31.8363
lclavicle -2.88238e-015 9.14409e-015
lhumerus -27.6905 16.5392 78.7599
lradius 29.3231
lwrist 8.66328
lhand -24.7211 24.6788
lfingers 7.12502
lthumb 1.78088 54.6512
rfemur -28.5303 8.24051 13.0891
rtibia 77.7065
rfoot -37.4599 -11.1323
rtoes -16.5344
lfemur -30.9015 10.1478 -20.2581
ltibia 79.5477
lfoot -23.546 -7.82596
ltoes -15.2081
257
root -0.778654 16.0178 -1.75854 -3.03029 -5.03871 5.98283
lowerback 20.9585 0.413405 -2.77171
upperback 5.97945 -0.132329 -1.21294
thorax -5.20506 -0.0584869 0.311672
lowerneck -9.02425 -0.487654 -6.2321
upperneck -1.92785 -0.102593 5.90482
head 0.972948 0.0790475 3.00478
rclavicle 1.67973e-014 2.22639e-014
rhumerus -25.5262 -3.03322 -81.5737
rradius 29.372
rwrist 13.6104
rhand -26.8106 -2.25457
rfingers 7.12502
rthumb -0.237197 -32.2342
lclavicle 1.67973e-014 2.22639e-014
lhumerus -28.0564 16.1937 78.8862
lradius 29.9564
lwrist 9.90047
lhand -24.9533 25.5561
lfingers 7.12502
lthumb 1.55665 55.5301
rfemur -28.3599 8.29262 13.047
rtibia 77.2899
rfoot -37.0278 -11.054
rtoes -16.6251
lfemur -30.4565 10.3104 -20.4154
ltibia 78.8733
lfoot -23.6939 -7.30639
ltoes -15.0532
258
root -0.774016 16.0737 -1.73371 -3.05155 -5.10256 5.98882
lowerback 20.7809 0.311311 -2.70631
upperback 5.94875 -0.242691 -1.16562
thorax -5.14384 -0.113251 0.352685
lowerneck -9.12534 -0.433047 -6.28963
upperneck -1.67629 -0.0248412 5.79193
head 1.06672 0.116863 2.98312
rclavicle 6.36111e-015 6.75868e-015
rhumerus -25.5765 -3.01223 -81.68
rradius 29.6973
rwrist 12.8698
rhand -27.6352 -2.07676
rfingers 7.12502
rthumb -1.03356 -32.054
lclavicle 6.36111e-015 6.75868e-015
lhumerus -28.2867 16.0223 79.084
lradius 30.5104
lwrist 11.1114
lhand -24.8064 26.5621
lfingers 7.12502
lthumb 1.69857 56.535
rfemur -28.0513 8.43219 13.0266
rtibia 76.7794
rfoot -36.6682 -10.9081
rtoes -16.5397
lfemur -29.8718 10.3931 -20.5539
ltibia 78.1133
lfoot -23.9533 -6.86345
ltoes -14.5015
259
root -0.768556 16.1267 -1.70737 -3.08133 -5.16763 6.11927
lowerback 20.4996 0.223902 -2.72075
upperback 5.96419 -0.348385 -1.16298
thorax -4.97866 -0.166918 0.389391
lowerneck -9.21374 -0.402418 -6.37485
upperneck -1.47289 0.0251891 5.6805
head 1.1448 0.140535 2.96588
rclavicle -1.5207e-014 -1.07344e-014
rhumerus -25.5791 -2.72306 -81.8568
rradius 30.0107
rwrist 11.7607
rhand -28.5311 -1.83598
rfingers 7.12502
rthumb -1.89886 -31.8073
lclavicle -1.5207e-014 -1.07344e-014
lhumerus -28.4384 15.9437 79.2364
lradius 30.9455
lwrist 11.7386
lhand -24.7828 26.8969
lfingers 7.12502
lthumb 1.72132 56.8697
rfemur -27.6339 8.57286 12.849
rtibia 76.2079
rfoot -36.3386 -10.5685
rtoes -15.6981
lfemur -29.2655 10.3792 -20.8235
ltibia 77.3045
lfoot -24.1951 -6.57628
ltoes -13.0625
260
root -0.764554 16.1754 -1.68553 -2.99619 -5.19375 6.21575
lowerback 20.1536 0.119369 -2.68671
upperback 5.90616 -0.467657 -1.18839
thorax -4.85913 -0.226162 0.370771
lowerneck -9.09703 -0.391391 -6.38166
upperneck -1.41231 0.0333104 5.60572
head 1.1427 0.141355 2.9413
rclavicle -9.34288e-015 -2.14687e-014
rhumerus -25.6763 -2.44506 -82.0651
rradius 30.2954
rwrist 10.6188
rhand -29.1908 -1.58772
rfingers 7.12502
rthumb -2.53596 -31.5524
lclavicle -9.34288e-015 -2.14687e-014
lhumerus -28.6342 15.9405 79.2554
lradius 31.2535
lwrist 11.722
lhand -24.8366 26.8958
lfingers 7.12502
lthumb 1.66941 56.8691
rfemur -27.2842 8.70855 12.7279
rtibia 75.6003
rfoot -35.8811 -10.3816
rtoes -14.7944
lfemur -28.8344 10.3173 -21.0852
ltibia 76.4923
lfoot -24.441 -6.06858
ltoes -12.7545
261
root -0.763995 16.2211 -1.66976 -2.83816 -5.15709 6.02117
lowerback 19.8636 -0.00833654 -2.45667
upperback 5.81138 -0.574607 -1.0946
thorax -4.80943 -0.279111 0.364531
lowerneck -8.93521 -0.360897 -6.45996
upperneck -1.42867 0.0724155 5.64245
head 1.1069 0.159714 2.9685
rclavicle 2.59414e-014 2.06736e-014
rhumerus -25.7493 -2.36287 -82.1254
rradius 30.4787
rwrist 9.66827
rhand -29.4325 -1.13228
rfingers 7.12502
rthumb -2.76941 -31.094
lclavicle 2.59414e-014 2.06736e-014
lhumerus -28.7063 15.8854 79.3066
lradius 31.3419
lwrist 11.5615
lhand -24.5222 26.5723
lfingers 7.12502
lthumb 1.97304 56.543
rfemur -27.0364 8.85092 12.985
rtibia 74.9957
rfoot -35.4537 -10.4916
rtoes -14.4
lfemur -28.4908 10.222 -21.0339
ltibia 75.6575
lfoot -24.6994 -5.28024
ltoes -13.5742
262
root -0.761103 16.2742 -1.65314 -2.71167 -5.11883 5.9658
lowerback 19.5609 -0.0966439 -2.35761
upperback 5.75576 -0.656555 -1.01495
thorax -4.7098 -0.320344 0.410746
lowerneck -8.84067 -0.350648 -6.53929
upperneck -1.37168 0.0866216 5.6529
head 1.10828 0.165705 2.98738
rclavicle 1.48095e-014 7.55382e-015
rhumerus -25.6998 -2.51393 -82.0338
rradius 30.5196
rwrist 9.21002
rhand -29.4336 0.197927
rfingers 7.12502
rthumb -2.77047 -29.7638
lclavicle 1.48095e-014 7.55382e-015
lhumerus -28.6774 15.7542 79.4653
lradius 31.4201
lwrist 11.3985
lhand -24.4021 26.2737
lfingers 7.12502
lthumb 2.08898 56.2432
rfemur -26.8332 8.94066 13.046
rtibia 74.4069
rfoot -35.1194 -10.5803
rtoes -14.3122
lfemur -27.9992 10.0078 -21.1479
ltibia 74.7101
lfoot -25.0154 -4.68582
ltoes -13.667
